<svg width="211" height="211" viewBox="0 0 211 211" fill="none" xmlns="http://www.w3.org/2000/svg">
<path fill-rule="evenodd" clip-rule="evenodd" d="M0 105.5C0 47.4135 47.4055 0 105.5 0C163.586 0 211 47.4055 211 105.5C211 163.586 163.595 211 105.5 211C47.4135 211 0 163.595 0 105.5ZM12.3633 105.5C12.3633 156.856 54.1441 198.637 105.5 198.637C156.856 198.637 198.637 156.856 198.637 105.5C198.637 54.1441 156.856 12.3633 105.5 12.3633C54.1441 12.3633 12.3633 54.1441 12.3633 105.5ZM105.5 124.045C116.212 124.045 126.891 126.613 136.384 131.471C145.558 136.167 153.689 143.016 159.895 151.281C161.946 154.011 161.396 157.886 158.665 159.937C155.935 161.986 152.06 161.436 150.011 158.706C139.367 144.536 123.143 136.408 105.5 136.408C87.8566 136.408 71.633 144.536 60.989 158.706C58.9397 161.436 55.0649 161.988 52.3347 159.937C49.6045 157.886 49.0539 154.011 51.1048 151.281C63.8077 134.369 83.8079 124.045 105.5 124.045ZM51.6763 109.871C54.0894 112.285 58.0044 112.285 60.4175 109.871L85.1441 85.1441C87.5588 82.7293 87.5588 78.8159 85.1441 76.4028L60.4175 51.6763C58.0044 49.2616 54.091 49.2616 51.6763 51.6763C49.2616 54.0894 49.2616 58.0028 51.6763 60.4175L72.0306 80.7734L51.6763 101.129C49.2616 103.542 49.2616 107.458 51.6763 109.871ZM150.583 51.6763C152.996 49.2616 156.911 49.2616 159.324 51.6763C161.738 54.0894 161.738 58.0044 159.324 60.4175L138.969 80.7734L159.324 101.129C161.738 103.544 161.738 107.458 159.324 109.871C156.911 112.285 152.996 112.285 150.583 109.871L125.856 85.1441C123.441 82.731 123.441 78.8175 125.856 76.4028L150.583 51.6763Z" fill="#EB5757"/>
</svg>
