<svg width="206" height="48" viewBox="0 0 206 48" fill="none" xmlns="http://www.w3.org/2000/svg">
<path d="M27.2654 23.7267C28.3733 22.6898 29.9735 20.5551 28.9272 17.7495C28.7426 16.8956 28.0655 16.1638 27.3885 15.5538C26.3422 14.517 25.2343 14.151 23.7572 14.151H13.1095V33.8512H22.9571C23.3879 33.8512 24.188 33.7902 25.419 33.6072C26.3422 33.4852 27.0192 33.2413 27.5116 32.9363C28.2502 32.4484 28.8657 31.8385 29.2349 30.9846C29.6658 30.1917 29.8504 29.2768 29.8504 28.24C29.8504 26.9592 29.5427 25.9223 28.9272 25.1294C28.5579 24.5195 28.004 24.0926 27.2654 23.7267ZM18.4641 18.1155H21.4799C22.2801 18.1155 22.8955 18.2984 23.2033 18.6034C23.511 18.9084 23.6956 19.3963 23.6956 19.9452C23.6956 20.5551 23.511 21.043 23.2033 21.348C22.8955 21.653 22.2801 21.8359 21.4184 21.8359H18.4641V18.1155ZM23.8187 29.0329C23.4495 29.3988 22.7724 29.5818 21.8492 29.5818H18.4641V25.6174H21.8492C22.834 25.6174 23.4495 25.8003 23.8803 26.1663C24.2496 26.5322 24.4342 26.9592 24.4342 27.5691C24.3727 28.179 24.188 28.6669 23.8187 29.0329Z" fill="#F5678D"/>
<path d="M39.5751 14.1509H34.3436V33.851H50.0998V28.9717H39.5751V14.1509Z" fill="#F5678D"/>
<path d="M60.6862 14.1509L53.2389 33.851H59.5167L63.025 24.0314L66.5332 33.851H72.7495L65.2407 14.1509H60.6862Z" fill="#F5678D"/>
<path d="M82.2275 13.541C78.8424 13.541 75.8265 15.1268 73.9186 17.5664L78.2884 20.799C79.2117 19.6401 80.6273 18.9692 82.2275 18.9692C84.9971 18.9692 87.2744 21.2259 87.2744 23.9705C87.2744 26.7151 84.9971 28.9718 82.2275 28.9718C81.0581 28.9718 80.0118 28.6058 79.1501 27.9349L75.1495 31.6554C76.9959 33.3631 79.5194 34.4 82.2275 34.4C88.013 34.4 92.7521 29.7037 92.7521 23.9705C92.7521 18.2373 88.0745 13.541 82.2275 13.541Z" fill="#F5678D"/>
<path d="M113.74 14.1509H107.216L101.554 20.6769V14.2729H96.2605V33.851H101.554V28.4228V27.325L106.724 33.851H113.494L105.8 23.4215L113.74 14.1509Z" fill="#F5678D"/>
<path d="M192.829 14.1509H186.305L180.642 20.6769V14.2729H175.349V33.851H180.642V28.4228V27.325L185.812 33.851H192.583L184.889 23.4215L192.829 14.1509Z" fill="#F5678D"/>
<path d="M131.65 14.1509H122.788V21.3478V27.6909V33.851H127.958V27.6909H131.65C135.713 27.6909 138.975 24.6413 138.975 20.9209C138.975 17.2004 135.651 14.1509 131.65 14.1509ZM131.466 22.9336H128.142V18.9082H131.466C132.574 18.9082 133.497 19.8231 133.497 20.9209C133.497 22.0187 132.574 22.9336 131.466 22.9336Z" fill="#F5678D"/>
<path d="M147.899 14.1509H142.544V33.851H147.899V14.1509Z" fill="#F5678D"/>
<path d="M165.194 14.1509L158.239 25.1903V14.1509H152.761V33.851H158.239L165.194 23.5435V33.851H170.672V14.1509H165.194Z" fill="#F5678D"/>
<path d="M0 0V48H206V0H0ZM201.076 43.1207H4.92381V4.87929H201.076V43.1207Z" fill="#F5678D"/>
</svg>
