<svg width="300" height="46" viewBox="0 0 300 46" fill="none" xmlns="http://www.w3.org/2000/svg">
<path d="M23.6301 26.7419C25.4794 24.8711 28.1507 21.0195 26.4041 15.9574C26.0959 14.4167 24.9657 13.0962 23.8356 11.9957C22.089 10.1249 20.2397 9.46465 17.774 9.46465H0V45.0096H16.4384C17.1575 45.0096 18.4931 44.8995 20.5479 44.5694C22.089 44.3493 23.2192 43.9091 24.0411 43.3589C25.274 42.4785 26.3014 41.378 26.9178 39.8374C27.637 38.4068 27.9452 36.7561 27.9452 34.8853C27.9452 32.5743 27.4315 30.7036 26.4041 29.273C25.7877 28.1725 24.863 27.4022 23.6301 26.7419ZM8.93835 16.6176H13.9726C15.3082 16.6176 16.3356 16.9478 16.8493 17.498C17.363 18.0482 17.6712 18.9286 17.6712 19.919C17.6712 21.0195 17.363 21.8999 16.8493 22.4501C16.3356 23.0003 15.3082 23.3305 13.8699 23.3305H8.93835V16.6176ZM17.8767 36.3159C17.2603 36.9762 16.1301 37.3063 14.589 37.3063H8.93835V30.1533H14.589C16.2329 30.1533 17.2603 30.4835 17.9794 31.1437C18.5959 31.804 18.9041 32.5743 18.9041 33.6748C18.8014 34.7753 18.4931 35.6556 17.8767 36.3159Z" fill="#F2F2F2"/>
<path d="M44.178 9.46465H35.4451V45.0096H61.7465V36.2059H44.178V9.46465Z" fill="#F2F2F2"/>
<path d="M79.4179 9.46465L66.9865 45.0096H77.4659L83.3221 27.2921L89.1782 45.0096H99.5549L87.0207 9.46465H79.4179Z" fill="#F2F2F2"/>
<path d="M115.377 8.36441C109.726 8.36441 104.692 11.2256 101.507 15.6275L108.801 21.4599C110.342 19.369 112.705 18.1585 115.377 18.1585C120 18.1585 123.801 22.2302 123.801 27.1823C123.801 32.1344 120 36.2061 115.377 36.2061C113.424 36.2061 111.678 35.5458 110.24 34.3353L103.561 41.0481C106.644 44.1294 110.856 46.0002 115.377 46.0002C125.034 46.0002 132.945 37.5266 132.945 27.1823C132.945 16.838 125.137 8.36441 115.377 8.36441Z" fill="#F2F2F2"/>
<path d="M167.979 9.46465H157.089L147.637 21.2396V9.68474H138.801V45.0096H147.637V35.2154V33.2346L156.267 45.0096H167.569L154.726 26.1917L167.979 9.46465Z" fill="#F2F2F2"/>
<path d="M300 9.46465H289.11L279.658 21.2396V9.68474H270.822V45.0096H279.658V35.2154V33.2346L288.288 45.0096H299.589L286.747 26.1917L300 9.46465Z" fill="#F2F2F2"/>
<path d="M197.877 9.46465H183.082V22.4501V33.8949V45.0096H191.712V33.8949H197.877C204.657 33.8949 210.103 28.3926 210.103 21.6798C210.103 14.967 204.555 9.46465 197.877 9.46465ZM197.568 25.3113H192.021V18.0482H197.568C199.418 18.0482 200.959 19.6989 200.959 21.6798C200.959 23.6606 199.418 25.3113 197.568 25.3113Z" fill="#F2F2F2"/>
<path d="M225 9.46465H216.062V45.0096H225V9.46465Z" fill="#F2F2F2"/>
<path d="M253.87 9.46465L242.26 29.383V9.46465H233.116V45.0096H242.26L253.87 26.4117V45.0096H263.014V9.46465H253.87Z" fill="#F2F2F2"/>
<path d="M23.6301 18.3783C25.4794 16.5075 28.1507 12.6559 26.4041 7.5938C26.0959 6.05316 24.9657 4.7326 23.8356 3.63214C22.089 1.76136 20.2397 1.10108 17.774 1.10108H0V36.646H16.4384C17.1575 36.646 18.4931 36.5359 20.5479 36.2058C22.089 35.9857 23.2192 35.5455 24.0411 34.9953C25.274 34.1149 26.3014 33.0145 26.9178 31.4738C27.637 30.0432 27.9452 28.3925 27.9452 26.5217C27.9452 24.2108 27.4315 22.34 26.4041 20.9094C25.7877 19.8089 24.863 19.0386 23.6301 18.3783ZM8.93835 8.25408H13.9726C15.3082 8.25408 16.3356 8.58422 16.8493 9.13445C17.363 9.68468 17.6712 10.5651 17.6712 11.5555C17.6712 12.6559 17.363 13.5363 16.8493 14.0865C16.3356 14.6368 15.3082 14.9669 13.8699 14.9669H8.93835V8.25408ZM17.8767 27.9523C17.2603 28.6126 16.1301 28.9428 14.589 28.9428H8.93835V21.7898H14.589C16.2329 21.7898 17.2603 22.1199 17.9794 22.7802C18.5959 23.4405 18.9041 24.2108 18.9041 25.3112C18.8014 26.4117 18.4931 27.2921 17.8767 27.9523Z" fill="#F5678D"/>
<path d="M44.178 1.10108H35.4451V36.646H61.7465V27.8423H44.178V1.10108Z" fill="#F5678D"/>
<path d="M79.4179 1.10108L66.9865 36.646H77.4659L83.3221 18.9286L89.1782 36.646H99.5549L87.0207 1.10108H79.4179Z" fill="#F5678D"/>
<path d="M115.377 0C109.726 0 104.692 2.8612 101.507 7.26305L108.801 13.0955C110.342 11.0046 112.705 9.79411 115.377 9.79411C120 9.79411 123.801 13.8658 123.801 18.8179C123.801 23.77 120 27.8417 115.377 27.8417C113.424 27.8417 111.678 27.1814 110.24 25.9709L103.561 32.6837C106.644 35.765 110.856 37.6358 115.377 37.6358C125.034 37.6358 132.945 29.1622 132.945 18.8179C132.945 8.47355 125.137 0 115.377 0Z" fill="#F5678D"/>
<path d="M167.979 1.10108H157.089L147.637 12.876V1.32117H138.801V36.646H147.637V26.8519V24.871L156.267 36.646H167.569L154.726 17.8281L167.979 1.10108Z" fill="#F5678D"/>
<path d="M300 1.10108H289.11L279.658 12.876V1.32117H270.822V36.646H279.658V26.8519V24.871L288.288 36.646H299.589L286.747 17.8281L300 1.10108Z" fill="#F5678D"/>
<path d="M197.877 1.10108H183.082V14.0865V25.5313V36.646H191.712V25.5313H197.877C204.657 25.5313 210.103 20.029 210.103 13.3162C210.103 6.60339 204.555 1.10108 197.877 1.10108ZM197.568 16.9477H192.021V9.68468H197.568C199.418 9.68468 200.959 11.3354 200.959 13.3162C200.959 15.297 199.418 16.9477 197.568 16.9477Z" fill="#F5678D"/>
<path d="M225 1.10108H216.062V36.646H225V1.10108Z" fill="#F5678D"/>
<path d="M253.87 1.10108L242.26 21.0194V1.10108H233.116V36.646H242.26L253.87 18.0482V36.646H263.014V1.10108H253.87Z" fill="#F5678D"/>
</svg>
