<svg width="221" height="211" viewBox="0 0 221 211" fill="none" xmlns="http://www.w3.org/2000/svg">
<path d="M219.251 100.293L200.955 76.118L201.545 45.8056C201.621 41.9424 199.118 38.5006 195.417 37.3797L166.391 28.5914L149.071 3.70299C146.861 0.525784 142.805 -0.792294 139.147 0.480274L110.5 10.4451L81.8517 0.480274C78.1962 -0.790608 74.1395 0.524098 71.929 3.70299L54.6095 28.5914L25.5835 37.3797C21.8825 38.5006 19.3787 41.9424 19.4545 45.8056L20.0447 76.118L1.7489 100.293C-0.582966 103.373 -0.582966 107.627 1.7489 110.707L20.0447 134.882L19.4545 165.194C19.3787 169.058 21.8825 172.501 25.5835 173.62L54.6095 182.41L71.929 207.297C74.1395 210.474 78.1945 211.792 81.8517 210.52L110.5 200.555L139.148 210.52C142.804 211.791 146.861 210.476 149.071 207.297L166.391 182.409L195.417 173.62C199.118 172.499 201.621 169.058 201.545 165.194L200.955 134.882L219.251 110.707C221.583 107.627 221.583 103.373 219.251 100.293ZM185.383 126.852C184.214 128.398 183.599 130.291 183.636 132.227L184.157 158.997L158.515 166.76C156.655 167.323 155.04 168.496 153.93 170.091L138.637 192.068L113.338 183.268C111.5 182.628 109.5 182.628 107.662 183.268L82.3625 192.068L67.0697 170.091C65.9603 168.496 64.345 167.323 62.4852 166.76L36.8432 158.997L37.3642 132.227C37.4013 130.291 36.7858 128.398 35.6174 126.854L19.4579 105.5L35.6174 84.1478C36.7875 82.6022 37.403 80.7094 37.3642 78.7727L36.8432 52.0033L62.4852 44.2398C64.345 43.6768 65.9603 42.5037 67.0697 40.9092L82.3625 18.9317L107.664 27.7318C109.5 28.3706 111.5 28.3706 113.338 27.7318L138.637 18.9317L153.932 40.9092C155.041 42.502 156.657 43.6768 158.515 44.2398L184.157 52.0033L183.636 78.7727C183.599 80.7094 184.214 82.6022 185.383 84.1461L201.542 105.5L185.383 126.852ZM154.928 73.8577C158.299 77.2271 158.299 82.6915 154.928 86.0626L103.83 137.142C100.466 140.505 94.9964 140.517 91.6209 137.142L66.0715 111.603C62.701 108.232 62.701 102.768 66.0715 99.3984C69.4437 96.0274 74.91 96.0274 78.2805 99.3984L97.7262 118.836L142.719 73.8577C146.09 70.4867 151.556 70.4867 154.928 73.8577Z" fill="#60C19A"/>
</svg>
